#!OML:ASF F:\VICON\USERDATA\INSTALL\rory3\rory3.ASF
:FULLY-SPECIFIED
:DEGREES
333
root 0.55515 17.9196 -0.353251 1.69407 -30.9038 3.20008
lowerback 2.24975 -1.21778 -4.76093
upperback -0.777376 -1.72408 2.69018
thorax -1.842 -0.791383 5.52691
lowerneck -28.0682 -0.703144 -9.70902
upperneck -9.22209 1.53023 7.15834
head 1.22335 1.17778 3.96636
rclavicle -4.21423e-014 -1.11319e-014
rhumerus -33.8961 -6.78993 -70.3597
rradius 38.5939
rwrist 14.9478
rhand -26.48 11.7798
rfingers 7.12502
rthumb 0.0821655 -18.1999
lclavicle -4.21423e-014 -1.11319e-014
lhumerus 61.0314 12.9266 45.4322
lradius 96.5228
lwrist -3.44493
lhand -41.0547 21.3039
lfingers 7.12502
lthumb -13.9843 50.8135
rfemur -10.9421 2.87728 8.97883
rtibia 25.933
rfoot -16.6885 -9.09778
rtoes 1.26053
lfemur -0.666459 2.05747 -25.2169
ltibia 13.1777
lfoot -10.6297 6.66777
ltoes -13.2219
334
root 0.556092 17.9201 -0.353599 1.68279 -30.8936 3.20004
lowerback 2.25786 -1.24737 -4.7641
upperback -0.7662 -1.76479 2.63041
thorax -1.83139 -0.812539 5.46726
lowerneck -28.0171 -0.601507 -9.50943
upperneck -9.08958 1.59814 7.13812
head 1.25556 1.20443 3.93276
rclavicle 4.72611e-014 2.62396e-014
rhumerus -33.826 -6.87945 -70.4857
rradius 38.5321
rwrist 15.0508
rhand -26.4609 11.5741
rfingers 7.12502
rthumb 0.100558 -18.4056
lclavicle 4.72611e-014 2.62396e-014
lhumerus 60.7209 12.7166 45.2588
lradius 96.5758
lwrist -3.46827
lhand -40.7086 21.3707
lfingers 7.12502
lthumb -13.6508 50.9031
rfemur -10.9325 2.89016 8.98106
rtibia 25.9465
rfoot -16.6637 -9.17981
rtoes 0.693832
lfemur -0.63756 2.00053 -25.2188
ltibia 13.1206
lfoot -10.5619 6.70602
ltoes -13.0552
335
root 0.556363 17.9191 -0.353225 1.62816 -30.8754 3.26048
lowerback 2.23575 -1.29629 -4.80878
upperback -0.728139 -1.83097 2.58491
thorax -1.77114 -0.848101 5.44551
lowerneck -27.8822 -0.552575 -9.58325
upperneck -9.09265 1.67227 7.29908
head 1.23361 1.24858 4.00133
rclavicle -2.29099e-014 1.90833e-014
rhumerus -33.7428 -6.86544 -70.5977
rradius 38.5375
rwrist 15.1499
rhand -26.4669 11.4709
rfingers 7.12502
rthumb 0.09476 -18.5088
lclavicle -2.29099e-014 1.90833e-014
lhumerus 60.3888 12.5524 45.0816
lradius 96.5549
lwrist -3.43562
lhand -40.6842 21.0555
lfingers 7.12502
lthumb -13.6272 50.5895
rfemur -10.9026 2.86391 8.91908
rtibia 25.9421
rfoot -16.6572 -9.19206
rtoes 0.163253
lfemur -0.615016 2.01741 -25.2757
ltibia 13.1187
lfoot -10.5266 6.67949
ltoes -12.9954
336
root 0.556849 17.9201 -0.354566 1.64427 -30.8624 3.23059
lowerback 2.19178 -1.31234 -4.75888
upperback -0.677642 -1.8494 2.5387
thorax -1.69476 -0.8616 5.36678
lowerneck -27.8953 -0.552154 -9.54573
upperneck -8.9669 1.66209 7.34571
head 1.2761 1.24493 4.00995
rclavicle 5.31749e-014 -9.54166e-015
rhumerus -33.6281 -6.97497 -70.6965
rradius 38.499
rwrist 15.1754
rhand -26.4268 11.6177
rfingers 7.12502
rthumb 0.133486 -18.362
lclavicle 5.31749e-014 -9.54166e-015
lhumerus 60.1517 12.3422 44.9069
lradius 96.5807
lwrist -3.18445
lhand -40.6865 20.8607
lfingers 7.12502
lthumb -13.6295 50.3945
rfemur -10.9092 2.82185 8.95146
rtibia 25.9436
rfoot -16.6476 -9.15715
rtoes 0.0248055
lfemur -0.616352 2.05117 -25.244
ltibia 13.1023
lfoot -10.5184 6.62969
ltoes -13.1061
337
root 0.558223 17.9208 -0.356602 1.6849 -30.8459 3.16655
lowerback 2.19634 -1.32311 -4.69306
upperback -0.701165 -1.86231 2.53126
thorax -1.72219 -0.867428 5.32249
lowerneck -27.7502 -0.572617 -9.51223
upperneck -8.8372 1.61534 7.29732
head 1.30292 1.21729 3.98325
rclavicle -4.57205e-015 6.36111e-015
rhumerus -33.6698 -6.88608 -70.7351
rradius 38.5254
rwrist 15.0174
rhand -26.3648 11.92
rfingers 7.12502
rthumb 0.193404 -18.0597
lclavicle -4.57205e-015 6.36111e-015
lhumerus 59.7431 12.0026 44.7773
lradius 96.6668
lwrist -2.85494
lhand -40.8769 21.0809
lfingers 7.12502
lthumb -13.813 50.6023
rfemur -10.9161 2.85396 9.01459
rtibia 25.9339
rfoot -16.6497 -9.17115
rtoes -0.000613264
lfemur -0.628118 2.00553 -25.1853
ltibia 13.082
lfoot -10.481 6.63311
ltoes -13.1403
338
root 0.558936 17.9198 -0.356862 1.64646 -30.8293 3.24386
lowerback 2.18675 -1.33012 -4.76561
upperback -0.73273 -1.87381 2.51731
thorax -1.74625 -0.87094 5.34987
lowerneck -27.5357 -0.603669 -9.64423
upperneck -8.75863 1.5979 7.39921
head 1.30264 1.21444 4.0335
rclavicle -6.30147e-014 4.37326e-014
rhumerus -33.7624 -6.73006 -70.7459
rradius 38.5982
rwrist 14.8762
rhand -26.3821 11.9413
rfingers 7.12502
rthumb 0.176669 -18.0384
lclavicle -6.30147e-014 4.37326e-014
lhumerus 59.2808 11.6163 44.7249
lradius 96.7552
lwrist -2.63242
lhand -41.0555 21.1913
lfingers 7.12502
lthumb -13.9851 50.7009
rfemur -10.9007 2.79051 8.93715
rtibia 25.9151
rfoot -16.6152 -9.19021
rtoes -0.322336
lfemur -0.629979 1.9537 -25.2609
ltibia 13.0902
lfoot -10.5096 6.64816
ltoes -13.0826
339
root 0.559762 17.9197 -0.356394 1.62158 -30.8192 3.22749
lowerback 2.16676 -1.35249 -4.75027
upperback -0.71579 -1.90195 2.54522
thorax -1.71346 -0.886542 5.37016
lowerneck -27.4118 -0.618283 -9.88638
upperneck -8.64858 1.63857 7.56183
head 1.31717 1.24672 4.12714
rclavicle 4.09496e-014 -1.51076e-014
rhumerus -33.7089 -6.63471 -70.744
rradius 38.5889
rwrist 14.8777
rhand -26.4076 11.8781
rfingers 7.12502
rthumb 0.152084 -18.1015
lclavicle 4.09496e-014 -1.51076e-014
lhumerus 58.807 11.2994 44.6319
lradius 96.8327
lwrist -2.54026
lhand -41.1556 21.4284
lfingers 7.12502
lthumb -14.0816 50.9313
rfemur -10.8465 2.75319 8.94488
rtibia 25.8954
rfoot -16.6075 -9.13474
rtoes -0.0794969
lfemur -0.583725 1.96848 -25.2468
ltibia 13.0978
lfoot -10.6084 6.65828
ltoes -13.0087
340
root 0.561725 17.9205 -0.360152 1.59387 -30.8025 3.22908
lowerback 2.18182 -1.39344 -4.76336
upperback -0.730876 -1.9574 2.57342
thorax -1.72908 -0.913263 5.40949
lowerneck -27.2245 -0.582428 -9.97778
upperneck -8.47435 1.69563 7.54559
head 1.34231 1.27426 4.13888
rclavicle 5.1684e-014 3.65764e-014
rhumerus -33.6906 -6.42348 -70.7745
rradius 38.5799
rwrist 14.7923
rhand -26.437 11.8799
rfingers 7.12502
rthumb 0.123639 -18.0998
lclavicle 5.1684e-014 3.65764e-014
lhumerus 58.2952 10.9899 44.5254
lradius 96.845
lwrist -2.51528
lhand -40.8398 21.6948
lfingers 7.12502
lthumb -13.7772 51.2187
rfemur -10.8208 2.69798 8.9417
rtibia 25.8815
rfoot -16.6335 -9.05835
rtoes 0.302537
lfemur -0.573058 1.96917 -25.2405
ltibia 13.0982
lfoot -10.6218 6.62651
ltoes -12.7623
341
root 0.563711 17.9221 -0.363476 1.62743 -30.7582 3.2146
lowerback 2.15857 -1.43143 -4.76521
upperback -0.733116 -2.0072 2.57994
thorax -1.71164 -0.938671 5.41801
lowerneck -27.2127 -0.573747 -9.96828
upperneck -8.20229 1.70155 7.48893
head 1.42411 1.27417 4.11967
rclavicle -1.98785e-016 1.11319e-014
rhumerus -33.6801 -6.22496 -70.856
rradius 38.6275
rwrist 14.6236
rhand -26.4914 11.9375
rfingers 7.12502
rthumb 0.0711756 -18.0422
lclavicle -1.98785e-016 1.11319e-014
lhumerus 57.8985 10.6886 44.4745
lradius 96.9109
lwrist -2.37943
lhand -40.4342 21.9326
lfingers 7.12502
lthumb -13.3864 51.4825
rfemur -10.8343 2.63351 8.95469
rtibia 25.8344
rfoot -16.5625 -9.09723
rtoes 0.0139343
lfemur -0.664104 1.92648 -25.2269
ltibia 13.1844
lfoot -10.6152 6.63043
ltoes -12.7099
